<svg xmlns="http://www.w3.org/2000/svg" viewBox="0 0 48 48"><rect width="48" height="48" rx="10" fill="#1DA1F2"/><path d="M37 16.5a8.5 8.5 0 0 1-2.4.66 4.2 4.2 0 0 0 1.85-2.32 8.38 8.38 0 0 1-2.66 1.02A4.19 4.19 0 0 0 24.5 20a11.9 11.9 0 0 1-8.63-4.38 4.18 4.18 0 0 0 1.3 5.59 4.16 4.16 0 0 1-1.9-.52v.05a4.19 4.19 0 0 0 3.36 4.11 4.2 4.2 0 0 1-1.89.07 4.2 4.2 0 0 0 3.92 2.92A8.42 8.42 0 0 1 13 29.97a11.87 11.87 0 0 0 6.43 1.89c7.72 0 11.94-6.4 11.94-11.94l-.01-.54A8.53 8.53 0 0 0 37 16.5z" fill="#fff"/></svg>
